<svg width="14" height="10" viewBox="0 0 14 10" fill="none" xmlns="http://www.w3.org/2000/svg">
<path d="M8.47 1.53C8.33752 1.38782 8.2654 1.19978 8.26882 1.00548C8.27225 0.811176 8.35097 0.62579 8.48838 0.488377C8.62579 0.350964 8.81118 0.272252 9.00548 0.268824C9.19978 0.265396 9.38783 0.337519 9.53 0.469999L13.53 4.47C13.6705 4.61062 13.7493 4.80125 13.7493 5C13.7493 5.19875 13.6705 5.38937 13.53 5.53L9.53 9.53C9.46134 9.60369 9.37854 9.66279 9.28654 9.70378C9.19454 9.74477 9.09523 9.76681 8.99452 9.76859C8.89382 9.77037 8.79379 9.75184 8.7004 9.71412C8.60701 9.6764 8.52218 9.62026 8.45096 9.54904C8.37974 9.47782 8.3236 9.39298 8.28588 9.2996C8.24816 9.20621 8.22963 9.10618 8.23141 9.00548C8.23318 8.90477 8.25523 8.80546 8.29622 8.71346C8.33721 8.62146 8.39631 8.53866 8.47 8.47L11.19 5.75H1.5C1.30109 5.75 1.11032 5.67098 0.96967 5.53033C0.829018 5.38968 0.75 5.19891 0.75 5C0.75 4.80109 0.829018 4.61032 0.96967 4.46967C1.11032 4.32902 1.30109 4.25 1.5 4.25H11.19L8.47 1.53Z" fill="#DFD9D9"/>
</svg>
